<svg xmlns="http://www.w3.org/2000/svg" viewBox="0 0 100 100">
  <rect width="100" height="100" fill="#582D81" rx="16"/>
  <!-- Scaled logo mark centered in square viewport -->
  <!-- Original viewBox of the mark: roughly x=270 to x=1750, y=113 to y=935 -->
  <g transform="translate(50,50) scale(0.048) translate(-1010,-524)">
    <!-- Lime M mark -->
    <path fill="#8fc21d" d="M1162.45,161.49c-7.57-5.43-15.49-10.53-23.81-15.24-38.42-21.73-82.48-32.6-132.16-32.6s-91.78,10.88-130.96,32.6c-39.19,21.74-70.04,51.24-92.57,88.49-22.5,37.26-33.75,80.34-33.75,129.21v355.03c0,13.19-3.11,24.85-9.32,34.95-6.19,10.11-14.53,18.07-25.02,23.88-10.47,5.82-21.9,8.72-34.29,8.72-11.67,0-22.35-2.9-32.06-8.72-9.68-5.81-17.61-13.77-23.83-23.88-6.22-10.1-9.32-21.75-9.32-34.95v-355.03c0-48.88-11.26-91.95-33.75-129.21-22.5-37.25-53.16-66.75-91.98-88.49-38.82-21.73-83.06-32.6-132.7-32.6s-92.94,10.88-132.16,32.6c-39.19,21.74-69.84,51.24-91.98,88.49-22.11,37.26-33.15,80.34-33.15,129.21v578.57h190.93V349.99c0-12.43,2.9-23.68,8.72-33.75,5.81-10.1,13.75-18.26,23.83-24.48,10.1-6.22,21.37-9.32,33.8-9.32s23.63,3.11,33.75,9.32c10.1,6.22,18.24,14.38,24.42,24.48,6.22,10.07,9.32,21.32,9.32,33.75v355.03c0,51.22,11.45,95.45,34.35,132.7,22.9,37.26,53.93,66.38,93.12,87.34,39.21,20.94,82.49,31.4,129.81,31.4s90.39-10.47,129.21-31.4c38.82-20.96,69.85-50.08,93.12-87.34,23.29-37.25,34.95-81.48,34.95-132.7v-356.23c0-12.39,3.08-23.44,9.27-33.15,6.22-9.7,14.56-17.66,25.02-23.88,10.5-6.22,21.56-9.32,33.2-9.32,12.43,0,23.68,3.11,33.75,9.32,10.1,6.22,18.06,14.18,23.88,23.88,2.05,3.43,3.73,7.04,5.06,10.81,4.38-35.17,15.07-67.25,31.96-95.73,16-26.92,36.55-50.09,61.32-69.24z"/>
    <!-- White N mark -->
    <path fill="#ffffff" d="M1732.13,720.18c0,13.77-3.51,26.67-10.42,38.35-6.89,11.65-16.3,20.83-27.98,27.29-11.57,6.44-24.4,9.71-38.09,9.71s-25.21-3.31-36.1-9.84c-10.74-6.44-19.67-15.58-26.54-27.15-6.92-11.68-10.42-24.58-10.42-38.35v-356.23c0-47.18-10.97-89.29-32.62-125.16-21.68-35.9-51.66-64.73-89.09-85.69-37.47-20.97-80.83-31.6-128.87-31.6s-90.48,10.64-128.35,31.62c-37.76,20.95-67.72,49.76-89.03,85.63-21.26,35.84-32.05,77.97-32.05,125.2v570.71h175.23V349.99c0-13.77,3.29-26.45,9.78-37.67,6.43-11.19,15.35-20.35,26.5-27.23,11.32-6.96,24.07-10.49,37.92-10.49s26.54,3.53,37.86,10.48c11.11,6.84,20.19,15.94,27.01,27.07,6.95,11.26,10.48,24,10.48,37.85v356.23c0,46.44,10.99,88.57,32.65,125.22,21.69,36.62,51.64,65.6,89,86.15,37.47,20.59,80.46,31.03,127.77,31.03s90.27-10.44,127.72-31.03c37.39-20.55,67.33-49.53,89-86.15,21.7-36.66,32.71-78.79,32.71-125.22V135.51h-174.08v584.67z"/>
  </g>
</svg>
