<?xml version="1.0" encoding="UTF-8"?><svg id="Capa_1" xmlns="http://www.w3.org/2000/svg" xmlns:xlink="http://www.w3.org/1999/xlink" viewBox="0 0 2000 1335.61"><defs><style>.cls-1{clip-path:url(#clippath);}.cls-2,.cls-3{fill:#fff;}.cls-3{stroke-width:0px;}</style><clipPath id="clippath"><rect class="cls-3" x="1851.51" y="857.28" width="85.22" height="85.22"/></clipPath></defs><path class="cls-3" d="M1894.37,899.54c4.84,0,8.01-2.63,8.01-7.46s-3.18-7.18-8.14-7.18h-7.71v14.65h7.84ZM1879.66,878.62h15.01c8.97,0,14.71,4.78,14.71,13.33,0,6.46-3.59,10.52-8.67,12.32l9.81,16.2h-8.01l-8.85-14.76c-.06-.06-2.21,0-2.27,0h-4.85v14.76h-6.88v-41.85"/><rect class="cls-2" x="1851.51" y="857.28" width="85.22" height="85.22"/><g class="cls-1"><path class="cls-3" d="M1893.74,864.54c-4.73,0-9.31.92-13.62,2.74-4.17,1.76-7.91,4.29-11.12,7.5-3.21,3.22-5.73,6.96-7.5,11.13-1.82,4.31-2.76,8.89-2.76,13.61s.93,9.31,2.76,13.62c1.76,4.17,4.29,7.91,7.5,11.13,3.21,3.21,6.95,5.73,11.12,7.5,4.31,1.82,8.89,2.74,13.62,2.74s9.31-.92,13.62-2.74c4.16-1.76,7.91-4.29,11.12-7.5,3.21-3.22,5.73-6.96,7.5-11.13,1.82-4.31,2.74-8.89,2.74-13.62s-.92-9.3-2.74-13.61c-1.76-4.17-4.29-7.91-7.5-11.13-3.21-3.21-6.96-5.73-11.12-7.5-4.31-1.82-8.9-2.74-13.62-2.74ZM1893.74,941.77c-5.7,0-11.24-1.12-16.45-3.33-5.02-2.13-9.54-5.16-13.42-9.04-3.88-3.88-6.93-8.4-9.05-13.43-2.21-5.21-3.32-10.75-3.32-16.45s1.11-11.22,3.32-16.43c2.13-5.03,5.17-9.55,9.05-13.43,3.88-3.88,8.4-6.91,13.42-9.05,5.21-2.2,10.75-3.32,16.45-3.32s11.24,1.12,16.45,3.32c5.02,2.14,9.54,5.17,13.42,9.05,3.88,3.88,6.93,8.4,9.05,13.43,2.21,5.21,3.32,10.73,3.32,16.43s-1.11,11.24-3.32,16.45c-2.13,5.03-5.17,9.55-9.05,13.43-3.88,3.88-8.4,6.91-13.42,9.04-5.21,2.21-10.75,3.33-16.45,3.33"/></g><path class="cls-3" d="M1162.45,161.49c-7.57-5.43-15.49-10.53-23.81-15.24-38.42-21.73-82.48-32.6-132.16-32.6s-91.78,10.88-130.96,32.6c-39.19,21.74-70.04,51.24-92.57,88.49-22.5,37.26-33.75,80.34-33.75,129.21v355.03c0,13.19-3.11,24.85-9.32,34.95-6.19,10.11-14.53,18.07-25.02,23.88-10.47,5.82-21.9,8.72-34.29,8.72-11.67,0-22.35-2.9-32.06-8.72-9.68-5.81-17.61-13.77-23.83-23.88-6.22-10.1-9.32-21.75-9.32-34.95v-355.03c0-48.88-11.26-91.95-33.75-129.21-22.5-37.25-53.16-66.75-91.98-88.49-38.82-21.73-83.06-32.6-132.7-32.6s-92.94,10.88-132.16,32.6c-39.19,21.74-69.84,51.24-91.98,88.49-22.11,37.26-33.15,80.34-33.15,129.21v578.57h190.93V349.99c0-12.43,2.9-23.68,8.72-33.75,5.81-10.1,13.75-18.26,23.83-24.48,10.1-6.22,21.37-9.32,33.8-9.32s23.63,3.11,33.75,9.32c10.1,6.22,18.24,14.38,24.42,24.48,6.22,10.07,9.32,21.32,9.32,33.75v355.03c0,51.22,11.45,95.45,34.35,132.7,22.9,37.26,53.93,66.38,93.12,87.34,39.21,20.94,82.49,31.4,129.81,31.4s90.39-10.47,129.21-31.4c38.82-20.96,69.85-50.08,93.12-87.34,23.29-37.25,34.95-81.48,34.95-132.7v-356.23c0-12.39,3.08-23.44,9.27-33.15,6.22-9.7,14.56-17.66,25.02-23.88,10.5-6.22,21.56-9.32,33.2-9.32,12.43,0,23.68,3.11,33.75,9.32,10.1,6.22,18.06,14.18,23.88,23.88,2.05,3.43,3.73,7.04,5.06,10.81,4.38-35.17,15.07-67.25,31.96-95.73,16-26.92,36.55-50.09,61.32-69.24Z"/><path class="cls-3" d="M1732.13,720.18c0,13.77-3.51,26.67-10.42,38.35-6.89,11.65-16.3,20.83-27.98,27.29-11.57,6.44-24.4,9.71-38.09,9.71s-25.21-3.31-36.1-9.84c-10.74-6.44-19.67-15.58-26.54-27.15-6.92-11.68-10.42-24.58-10.42-38.35v-356.23c0-47.18-10.97-89.29-32.62-125.16-21.68-35.9-51.66-64.73-89.09-85.69-37.47-20.97-80.83-31.6-128.87-31.6s-90.48,10.64-128.35,31.62c-37.76,20.95-67.72,49.76-89.03,85.63-21.26,35.84-32.05,77.97-32.05,125.2v570.71h175.23V349.99c0-13.77,3.29-26.45,9.78-37.67,6.43-11.19,15.35-20.35,26.5-27.23,11.32-6.96,24.07-10.49,37.92-10.49s26.54,3.53,37.86,10.48c11.11,6.84,20.19,15.94,27.01,27.07,6.95,11.26,10.48,24,10.48,37.85v356.23c0,46.44,10.99,88.57,32.65,125.22,21.69,36.62,51.64,65.6,89,86.15,37.47,20.59,80.46,31.03,127.77,31.03s90.27-10.44,127.72-31.03c37.39-20.55,67.33-49.53,89-86.15,21.7-36.66,32.71-78.79,32.71-125.22V135.51h-174.08v584.67Z"/><path class="cls-3" d="M127.57,1167.22h33.28v22.81h-62.94v-108.39h29.66v85.58Z"/><path class="cls-3" d="M234.54,1108.36c6.67,3.52,11.92,8.63,15.73,15.31,3.82,6.69,5.72,14.47,5.72,23.35s-1.91,16.79-5.72,23.42c-3.82,6.64-9.06,11.74-15.73,15.31-6.67,3.57-14.23,5.36-22.66,5.36s-16.01-1.78-22.73-5.36c-6.72-3.57-12-8.67-15.81-15.31-3.82-6.63-5.72-14.44-5.72-23.42s1.91-16.79,5.72-23.42c3.81-6.63,9.08-11.71,15.81-15.23,6.72-3.52,14.3-5.28,22.73-5.28s15.98,1.76,22.66,5.28ZM201.65,1133.69c-2.71,3.06-4.06,7.5-4.06,13.32s1.36,10.41,4.06,13.47c2.71,3.06,6.12,4.59,10.24,4.59s7.38-1.56,10.09-4.67c2.71-3.11,4.07-7.58,4.07-13.4s-1.36-10.26-4.07-13.32c-2.71-3.06-6.07-4.59-10.09-4.59s-7.53,1.53-10.24,4.59Z"/><path class="cls-3" d="M326.61,1111.34c6.63,5.51,10.79,12.81,12.5,21.89h-27.7c-.7-3.06-2.13-5.36-4.29-6.89-2.16-1.53-4.79-2.3-7.91-2.3-2.21,0-3.89.49-5.04,1.46-1.16.97-1.73,2.32-1.73,4.06,0,2.14,1.23,3.75,3.69,4.82,2.46,1.07,6.5,2.27,12.12,3.6,6.52,1.43,11.92,2.96,16.19,4.59,4.26,1.63,7.98,4.29,11.14,7.96s4.74,8.63,4.74,14.85c0,5-1.35,9.44-4.06,13.32-2.71,3.88-6.65,6.92-11.82,9.11-5.17,2.2-11.27,3.29-18.29,3.29-11.85,0-21.28-2.6-28.31-7.81-7.03-5.2-11.29-12.65-12.8-22.35h28.46c.4,3.16,1.73,5.51,3.99,7.04,2.26,1.53,5.1,2.3,8.51,2.3,2.31,0,4.06-.51,5.27-1.53s1.81-2.35,1.81-3.98c0-2.45-1.28-4.23-3.84-5.36-2.56-1.12-6.65-2.24-12.27-3.37-6.43-1.32-11.69-2.78-15.81-4.36-4.12-1.58-7.7-4.13-10.77-7.65-3.06-3.52-4.59-8.39-4.59-14.62,0-7.76,2.96-14.08,8.88-18.98,5.92-4.9,14.35-7.35,25.3-7.35s20.02,2.76,26.65,8.27Z"/><path class="cls-3" d="M517.15,1113.18c5.97,6.53,8.96,15.51,8.96,26.94v49.91h-29.51v-46.08c0-4.59-1.26-8.16-3.76-10.72-2.51-2.55-5.87-3.83-10.09-3.83s-7.9,1.3-10.46,3.9c-2.56,2.6-3.84,6.3-3.84,11.1v45.62h-29.51v-46.08c0-4.59-1.26-8.16-3.76-10.72-2.51-2.55-5.87-3.83-10.09-3.83-4.42,0-7.91,1.3-10.46,3.9-2.56,2.6-3.84,6.3-3.84,11.1v45.62h-29.66v-85.88h29.66v13.17c2.41-4.29,5.77-7.68,10.09-10.18,4.32-2.5,9.39-3.75,15.21-3.75,6.32,0,11.89,1.43,16.71,4.29,4.82,2.86,8.58,6.94,11.29,12.25,2.91-5,6.83-9.01,11.74-12.02,4.92-3.01,10.39-4.52,16.41-4.52,10.64,0,18.94,3.27,24.92,9.8Z"/><path class="cls-3" d="M588.52,1106.98c4.37,2.6,7.6,6.2,9.71,10.79v-13.62h29.51v85.88h-29.51v-13.62c-2.11,4.59-5.35,8.19-9.71,10.79-4.37,2.6-9.51,3.9-15.43,3.9-6.72,0-12.8-1.76-18.22-5.28s-9.69-8.62-12.8-15.31c-3.11-6.68-4.67-14.52-4.67-23.5s1.56-16.79,4.67-23.42c3.11-6.63,7.38-11.71,12.8-15.23,5.42-3.52,11.49-5.28,18.22-5.28,5.92,0,11.07,1.3,15.43,3.9ZM571.65,1134.08c-2.86,3.11-4.29,7.42-4.29,12.93s1.43,9.98,4.29,13.09c2.86,3.11,6.6,4.67,11.22,4.67s8.08-1.58,10.99-4.75c2.91-3.16,4.37-7.5,4.37-13.01s-1.46-9.7-4.37-12.86c-2.91-3.16-6.58-4.75-10.99-4.75s-8.36,1.56-11.22,4.67Z"/><path class="cls-3" d="M686.15,1107.97c5.02-3.06,10.34-4.59,15.96-4.59v32.15h-8.58c-6.63,0-11.59,1.3-14.91,3.9-3.31,2.6-4.97,7.12-4.97,13.55v37.05h-29.66v-85.88h29.66v16.07c3.31-5.1,7.48-9.19,12.5-12.25Z"/><path class="cls-3" d="M762.18,1164.31v25.72h-12.19c-10.34,0-18.42-2.6-24.24-7.81-5.82-5.2-8.73-13.83-8.73-25.87v-27.1h-10.84v-25.11h10.84v-20.82h29.66v20.82h15.21v25.11h-15.21v27.71c0,2.65.58,4.54,1.73,5.66,1.15,1.13,3.09,1.68,5.79,1.68h7.98Z"/><path class="cls-3" d="M856.14,1152.52h-55.86c.5,9.7,4.67,14.54,12.5,14.54,2.91,0,5.32-.71,7.23-2.14,1.91-1.43,3.21-3.32,3.91-5.66h31.32c-1.11,6.02-3.56,11.46-7.38,16.3-3.82,4.85-8.63,8.65-14.45,11.41-5.82,2.76-12.2,4.13-19.12,4.13-8.43,0-15.88-1.76-22.36-5.28-6.48-3.52-11.52-8.62-15.13-15.31-3.61-6.68-5.42-14.52-5.42-23.5s1.81-16.79,5.42-23.42c3.61-6.63,8.68-11.71,15.21-15.23,6.52-3.52,13.95-5.28,22.28-5.28s15.86,1.74,22.28,5.2c6.42,3.47,11.42,8.42,14.98,14.85,3.56,6.43,5.34,13.88,5.34,22.35,0,2.14-.25,4.49-.75,7.04ZM823.31,1130.02c-2.41-2.25-5.42-3.37-9.03-3.37-3.91,0-7.1,1.12-9.56,3.37-2.46,2.25-3.89,5.56-4.29,9.95h26.35c.1-4.39-1.05-7.7-3.46-9.95Z"/><path class="cls-3" d="M927.5,1111.34c6.63,5.51,10.79,12.81,12.5,21.89h-27.71c-.7-3.06-2.13-5.36-4.29-6.89-2.16-1.53-4.79-2.3-7.9-2.3-2.21,0-3.89.49-5.04,1.46-1.15.97-1.73,2.32-1.73,4.06,0,2.14,1.23,3.75,3.69,4.82,2.46,1.07,6.5,2.27,12.12,3.6,6.52,1.43,11.92,2.96,16.19,4.59,4.27,1.63,7.98,4.29,11.14,7.96s4.74,8.63,4.74,14.85c0,5-1.36,9.44-4.07,13.32-2.71,3.88-6.65,6.92-11.82,9.11-5.17,2.2-11.27,3.29-18.29,3.29-11.84,0-21.28-2.6-28.3-7.81-7.03-5.2-11.29-12.65-12.8-22.35h28.46c.4,3.16,1.73,5.51,3.99,7.04s5.09,2.3,8.51,2.3c2.31,0,4.07-.51,5.27-1.53s1.81-2.35,1.81-3.98c0-2.45-1.28-4.23-3.84-5.36-2.56-1.12-6.65-2.24-12.27-3.37-6.42-1.32-11.69-2.78-15.81-4.36-4.12-1.58-7.7-4.13-10.77-7.65-3.06-3.52-4.59-8.39-4.59-14.62,0-7.76,2.96-14.08,8.88-18.98,5.92-4.9,14.35-7.35,25.29-7.35s20.02,2.76,26.65,8.27Z"/><path class="cls-3" d="M1061.35,1113.26c5.52,6.58,8.28,15.54,8.28,26.87v49.91h-29.36v-46.08c0-5-1.28-8.9-3.84-11.71-2.56-2.81-6-4.21-10.31-4.21s-7.93,1.45-10.54,4.36c-2.61,2.91-3.91,6.91-3.91,12.02v45.62h-29.66v-85.88h29.66v14.39c2.41-4.59,5.92-8.27,10.54-11.02,4.62-2.76,10.04-4.13,16.26-4.13,9.73,0,17.36,3.29,22.88,9.87Z"/><path class="cls-3" d="M1148,1108.36c6.67,3.52,11.92,8.63,15.74,15.31,3.81,6.69,5.72,14.47,5.72,23.35s-1.91,16.79-5.72,23.42c-3.82,6.64-9.06,11.74-15.74,15.31-6.67,3.57-14.23,5.36-22.66,5.36s-16.01-1.78-22.73-5.36c-6.73-3.57-12-8.67-15.81-15.31-3.82-6.63-5.72-14.44-5.72-23.42s1.91-16.79,5.72-23.42c3.82-6.63,9.08-11.71,15.81-15.23,6.72-3.52,14.3-5.28,22.73-5.28s15.98,1.76,22.66,5.28ZM1115.1,1133.69c-2.71,3.06-4.06,7.5-4.06,13.32s1.35,10.41,4.06,13.47c2.71,3.06,6.12,4.59,10.24,4.59s7.38-1.56,10.09-4.67c2.71-3.11,4.07-7.58,4.07-13.4s-1.35-10.26-4.07-13.32c-2.71-3.06-6.07-4.59-10.09-4.59s-7.53,1.53-10.24,4.59Z"/><path class="cls-3" d="M1288.55,1113.26c5.52,6.58,8.28,15.54,8.28,26.87v49.91h-29.36v-46.08c0-5-1.28-8.9-3.84-11.71-2.56-2.81-6-4.21-10.31-4.21s-7.93,1.45-10.54,4.36c-2.61,2.91-3.91,6.91-3.91,12.02v45.62h-29.66v-113.29h29.66v41.79c2.41-4.59,5.92-8.27,10.54-11.02,4.62-2.76,10.04-4.13,16.26-4.13,9.73,0,17.36,3.29,22.88,9.87Z"/><path class="cls-3" d="M1359.39,1106.98c4.37,2.6,7.6,6.2,9.71,10.79v-13.62h29.51v85.88h-29.51v-13.62c-2.11,4.59-5.35,8.19-9.71,10.79-4.37,2.6-9.51,3.9-15.43,3.9-6.72,0-12.8-1.76-18.22-5.28s-9.69-8.62-12.8-15.31c-3.11-6.68-4.67-14.52-4.67-23.5s1.56-16.79,4.67-23.42c3.11-6.63,7.38-11.71,12.8-15.23,5.42-3.52,11.49-5.28,18.22-5.28,5.92,0,11.07,1.3,15.43,3.9ZM1342.53,1134.08c-2.86,3.11-4.29,7.42-4.29,12.93s1.43,9.98,4.29,13.09c2.86,3.11,6.6,4.67,11.22,4.67s8.08-1.58,10.99-4.75c2.91-3.16,4.37-7.5,4.37-13.01s-1.46-9.7-4.37-12.86c-2.91-3.16-6.58-4.75-10.99-4.75s-8.36,1.56-11.22,4.67Z"/><path class="cls-3" d="M1438.81,1104.15l18.07,48.07,16.71-48.07h32.82l-53.45,126.91h-32.52l20.63-44.7-35.23-82.21h32.97Z"/><path class="cls-3" d="M1571,1167.22h33.28v22.81h-62.93v-108.39h29.66v85.58Z"/><path class="cls-3" d="M1702.14,1104.15v85.88h-29.51v-14.39c-2.41,4.59-5.92,8.27-10.54,11.02-4.62,2.76-10.04,4.13-16.26,4.13-9.74,0-17.39-3.29-22.96-9.87-5.57-6.58-8.36-15.59-8.36-27.02v-49.76h29.51v46.08c0,4.9,1.28,8.75,3.84,11.56,2.56,2.81,6,4.21,10.31,4.21s7.93-1.43,10.54-4.29c2.61-2.86,3.91-6.89,3.91-12.1v-45.47h29.51Z"/><path class="cls-3" d="M1797.9,1113.26c5.52,6.58,8.28,15.54,8.28,26.87v49.91h-29.36v-46.08c0-5-1.28-8.9-3.84-11.71-2.56-2.81-6-4.21-10.31-4.21s-7.93,1.45-10.54,4.36c-2.61,2.91-3.91,6.91-3.91,12.02v45.62h-29.66v-85.88h29.66v14.39c2.41-4.59,5.92-8.27,10.54-11.02,4.62-2.76,10.03-4.13,16.26-4.13,9.73,0,17.36,3.29,22.88,9.87Z"/><path class="cls-3" d="M1868.74,1106.98c4.37,2.6,7.6,6.2,9.71,10.79v-13.62h29.51v85.88h-29.51v-13.62c-2.11,4.59-5.35,8.19-9.71,10.79-4.37,2.6-9.51,3.9-15.43,3.9-6.73,0-12.8-1.76-18.22-5.28-5.42-3.52-9.69-8.62-12.8-15.31-3.11-6.68-4.67-14.52-4.67-23.5s1.55-16.79,4.67-23.42c3.11-6.63,7.38-11.71,12.8-15.23,5.42-3.52,11.49-5.28,18.22-5.28,5.92,0,11.07,1.3,15.43,3.9ZM1851.88,1134.08c-2.86,3.11-4.29,7.42-4.29,12.93s1.43,9.98,4.29,13.09c2.86,3.11,6.6,4.67,11.22,4.67s8.08-1.58,10.99-4.75c2.91-3.16,4.37-7.5,4.37-13.01s-1.46-9.7-4.37-12.86c-2.91-3.16-6.58-4.75-10.99-4.75s-8.36,1.56-11.22,4.67Z"/></svg>